<svg xmlns="http://www.w3.org/2000/svg" viewBox="0 0 100 100" width="100" height="100">
  <!-- expert Lightbox - redmine.org plugin directory logo -->
  <rect x="0" y="0" width="100" height="100" fill="#ffffff"/>

  <!-- faint expert-star watermark, striped -->
  <g fill="#F04C00" opacity="0.05">
    <polygon points="50,2 88,68 12,68"/>
    <polygon points="50,74 12,8 88,8"/>
  </g>
  <g fill="#ffffff">
    <rect x="0" y="12" width="100" height="2.4"/>
    <rect x="0" y="24" width="100" height="2.4"/>
    <rect x="0" y="36" width="100" height="2.4"/>
    <rect x="0" y="48" width="100" height="2.4"/>
    <rect x="0" y="60" width="100" height="2.4"/>
  </g>

  <!-- circle ring -->
  <circle cx="50" cy="38" r="26.5" fill="#ffffff" stroke="#F04C00" stroke-width="2.6"/>

  <!-- red segmented arc (family element) -->
  <path d="M 32.5 25.5 A 21.5 21.5 0 0 1 67.5 25.5"
        fill="none" stroke="#CD291F" stroke-width="5.4"
        stroke-dasharray="6.2 2.55"/>

  <!-- framed picture -->
  <g>
    <rect x="29" y="29" width="42" height="27" rx="3.4" fill="#F04C00"/>
    <rect x="33.2" y="33.2" width="33.6" height="18.6" rx="2.2" fill="#ffffff"/>
    <circle cx="40.4" cy="39.0" r="2.7" fill="#CD291F"/>
    <path d="M 33.2 51.8 L 42.6 42.8 L 49.4 49.6 L 55.4 43.6 L 66.8 51.8 Z" fill="#F58C66"/>
    <path d="M 49.4 49.6 L 55.4 43.6 L 66.8 51.8 Z" fill="#CD291F"/>
    <!-- expand bracket: must NOT be white, it sits on the white inner rect -->
    <g stroke="#CD291F" stroke-width="1.7" stroke-linecap="round" stroke-linejoin="round" fill="none">
      <path d="M 61.6 36.4 L 64.8 36.4 L 64.8 39.6"/>
    </g>
  </g>

  <!-- wordmark -->
  <text x="50" y="78.5" text-anchor="middle" font-family="Nunito, sans-serif"
        font-weight="900" font-size="14.5" fill="#EE4100">expert</text>
  <text x="50" y="90" text-anchor="middle" font-family="Nunito, sans-serif"
        font-weight="800" font-size="11" fill="#3F4245">Lightbox</text>
  <text x="50" y="96.2" text-anchor="middle" font-family="Nunito, sans-serif"
        font-weight="800" font-size="4.6" letter-spacing="0.5">
    <tspan fill="#525557">for </tspan><tspan fill="#CD291F">Redmine</tspan>
  </text>
</svg>
